<?xml version="1.0"?>
<svg xmlns="http://www.w3.org/2000/svg" viewBox="0 0 50 50" enable-background="new 0 0 50 50">
    <path style="text-indent:0;text-align:start;line-height:normal;text-transform:none;block-progression:tb;-inkscape-font-specification:Bitstream Vera Sans" d="M 4 1 C 2.3545455 1 1 2.3545455 1 4 L 1 30 C 1 31.645455 2.3545455 33 4 33 L 17 33 L 17 46 C 17 47.645455 18.354545 49 20 49 L 46 49 C 47.645455 49 49 47.645455 49 46 L 49 20 C 49 18.354545 47.645455 17 46 17 L 33 17 L 33 4 C 33 2.3545455 31.645455 1 30 1 L 4 1 z M 43.28125 1.28125 L 38.28125 6.28125 L 37.59375 7 L 38.28125 7.71875 L 43.28125 12.71875 L 44.71875 11.28125 L 40.4375 7 L 44.71875 2.71875 L 43.28125 1.28125 z M 4 3 L 30 3 C 30.554545 3 31 3.4454545 31 4 L 31 17.5625 L 30.59375 18 L 32 19.40625 L 32.4375 19 L 46 19 C 46.554545 19 47 19.445455 47 20 L 47 46 C 47 46.554545 46.554545 47 46 47 L 20 47 C 19.445455 47 19 46.554545 19 46 L 19 32.4375 L 19.40625 32 L 18 30.59375 L 17.5625 31 L 4 31 C 3.4454545 31 3 30.554545 3 30 L 3 4 C 3 3.4454545 3.4454545 3 4 3 z M 16 8 L 16 10 L 8 10 L 8 12 L 21.15625 12 C 20.937512 14.387766 19.142235 16.639433 16.96875 18.5 C 15.984361 17.918088 15.031424 17.240845 14.34375 16.5 C 13.544742 15.639213 13.09375 14.770507 13.09375 13.8125 L 11.09375 13.8125 C 11.09375 15.404493 11.855258 16.776412 12.875 17.875 C 13.582936 18.637674 14.405744 19.285401 15.28125 19.84375 C 12.412603 21.882425 9.59375 23.09375 9.59375 23.09375 L 10.40625 24.90625 C 10.40625 24.90625 13.531717 23.601736 16.6875 21.3125 C 16.864106 21.184388 17.041582 21.040771 17.21875 20.90625 C 19.480568 22.04566 21.53125 22.65625 21.53125 22.65625 L 22.0625 20.75 C 22.0625 20.75 20.631561 20.296796 18.90625 19.5 C 21.107873 17.498908 22.966817 14.988783 23.15625 12 L 26 12 L 26 10 L 18 10 L 18 8 L 16 8 z M 29.1875 19.40625 L 27.78125 20.78125 L 29.21875 22.21875 L 30.59375 20.8125 L 29.1875 19.40625 z M 26.40625 22.1875 L 25 23.59375 L 26.40625 25 L 27.8125 23.59375 L 26.40625 22.1875 z M 31.8125 24.90625 L 25.09375 42 L 27.40625 42 L 29.3125 36.8125 L 36.5 36.8125 L 38.40625 42 L 40.90625 42 L 34.1875 24.90625 L 31.8125 24.90625 z M 23.59375 25 L 22.1875 26.375 L 23.625 27.8125 L 25 26.40625 L 23.59375 25 z M 32.90625 26.90625 L 35.8125 34.90625 L 30 34.90625 L 32.90625 26.90625 z M 20.8125 27.78125 L 19.40625 29.1875 L 20.8125 30.59375 L 22.21875 29.1875 L 20.8125 27.78125 z M 5.71875 37.28125 L 4.28125 38.71875 L 8.5625 43 L 4.28125 47.28125 L 5.71875 48.71875 L 10.71875 43.71875 L 11.40625 43 L 10.71875 42.28125 L 5.71875 37.28125 z"/>
</svg>
